:SAMPLES-PER-SECOND 24
:FULLY-SPECIFIED
:DEGREES
455
root  20.2752 42.8332 38.7903 -101.518 -47.1065 95.417
RightUpLeg  -9.75044 -8.89081 -32.2998
RightLeg  25.9242 -26.9174 -13.6422
RightFoot  5.29623 -0.969057 6.71676
RightToes  -2.08645e-008 3.77894e-005 6.81332e-007
Spine  21.2174 -5.9725 -21.0214
Spine1  -11.7529 -9.94613 -0.0732769
HEad  -58.3158 51.0352 -41.8934
LeftShoulder1  4.98677 -10.9847 -28.3644
LeftArm  47.1064 -37.4014 -56.6471
LeftForeArm  87.7465 -80.1608 -72.7596
LeftHand  0.0102043 -7.32274 0.268689
RightShoulder  4.11423 7.38544 31.8894
RightArm  -16.0562 -61.045 18.1863
RightForeArm  76.3182 -5.60893 3.24259
RightHand  -0.606459 11.1582 -4.67416
LeftUpLeg  -29.9967 25.487 38.1078
LeftLeg  -1.39131 2.35061 8.62526
LeftFoot  2.59951 0.405754 -3.46977
LeftToes  1.24767e-006 1.47042e-008 1.32732e-009
456
root  20.8844 41.6737 38.3717 -94.7476 -47.9474 93.4926
RightUpLeg  -10.4322 7.52715 -31.9958
RightLeg  22.8443 -21.2252 -9.48424
RightFoot  -4.65469 -0.171236 2.28085
RightToes  -2.08645e-008 3.77894e-005 6.81332e-007
Spine  19.3543 -4.6546 -22.284
Spine1  -9.46988 -8.43922 -0.543092
HEad  -57.8316 52.679 -41.3658
LeftShoulder1  5.4462 -11.4326 -30.4553
LeftArm  39.2254 -33.3277 -49.173
LeftForeArm  84.6686 -79.9818 -69.547
LeftHand  -0.195453 -6.76886 2.21308
RightShoulder  4.10875 7.43897 31.6516
RightArm  -24.6423 -63.5308 15.6884
RightForeArm  80.8153 -3.67269 -3.45521
RightHand  -0.692481 9.66938 -5.70897
LeftUpLeg  -26.9166 24.5761 36.2235
LeftLeg  -1.16921 9.38102 5.65481
LeftFoot  5.57895 0.575885 -4.09514
LeftToes  1.24767e-006 1.47042e-008 1.32732e-009
457
root  21.3302 40.8299 38.0811 -88.1499 -51.2669 92.1949
RightUpLeg  -10.2012 4.90939 -27.505
RightLeg  13.5503 -16.4212 -6.86041
RightFoot  -12.0071 -0.0794694 0.0684425
RightToes  -2.08645e-008 3.77894e-005 6.81332e-007
Spine  17.5501 -4.85514 -19.6482
Spine1  -7.96083 -7.63566 -0.991404
HEad  -58.6021 52.4037 -41.4231
LeftShoulder1  5.88718 -11.7636 -32.5708
LeftArm  31.3892 -26.098 -40.6157
LeftForeArm  90.8748 -80.31 -75.2112
LeftHand  -0.316801 -6.23497 3.50052
RightShoulder  4.03498 7.43197 30.9933
RightArm  -19.7667 -62.596 6.45685
RightForeArm  77.2689 -3.77678 -3.70769
RightHand  -0.772053 10.5839 -5.99168
LeftUpLeg  -24.0445 21.7517 34.9025
LeftLeg  -1.72163 7.95324 6.0967
LeftFoot  2.92361 0.64873 -5.34753
LeftToes  1.24767e-006 1.47042e-008 1.32732e-009
458
root  21.8567 40.354 37.8057 -80.385 -56.6959 89.2805
RightUpLeg  -13.9575 -6.49076 -18.9565
RightLeg  8.86883 -12.0348 -5.56333
RightFoot  -13.1055 -0.149345 -3.94789
RightToes  -2.08645e-008 3.77894e-005 6.81332e-007
Spine  16.1755 -5.55435 -14.0513
Spine1  -5.98071 -7.0516 -1.85753
HEad  -61.4954 48.8314 -42.3766
LeftShoulder1  6.70943 -12.622 -35.5752
LeftArm  26.4625 -18.8289 -33.7378
LeftForeArm  86.8354 -80.0999 -70.6441
LeftHand  -0.307657 -5.80075 3.51626
RightShoulder  4.06005 7.31671 31.6262
RightArm  -21.9345 -55.5478 4.60739
RightForeArm  79.6477 -3.44342 -5.03437
RightHand  -0.984659 9.30753 -8.13834
LeftUpLeg  -23.1117 19.0624 32.6195
LeftLeg  0.945038 6.19868 6.93117
LeftFoot  0.183374 0.49502 -4.9166
LeftToes  1.24767e-006 1.47042e-008 1.32732e-009
459
root  22.2628 40.0435 37.5884 -71.8276 -61.2364 83.2641
RightUpLeg  -18.6516 -6.11192 -13.6546
RightLeg  11.5882 -16.724 -5.17511
RightFoot  -11.998 -0.126986 -7.7214
RightToes  -2.08645e-008 3.77894e-005 6.81332e-007
Spine  15.339 -5.37887 -11.3141
Spine1  -3.10068 -6.70071 0.342606
HEad  -61.6783 46.2311 -41.0365
LeftShoulder1  7.66976 -13.6224 -38.6514
LeftArm  22.1878 -10.776 -30.247
LeftForeArm  65.7819 -77.7716 -49.6095
LeftHand  -0.316603 -6.03164 3.54556
RightShoulder  4.00572 7.13552 31.7556
RightArm  -28.9016 -44.3183 10.3278
RightForeArm  85.3049 -2.84759 -7.01778
RightHand  -1.15044 6.32671 -11.6193
LeftUpLeg  -19.9584 16.1953 28.1634
LeftLeg  2.28587 11.4176 5.63554
LeftFoot  0.0280518 0.632764 -6.36198
LeftToes  1.24767e-006 1.47042e-008 1.32732e-009
